<?xml version="1.0" standalone="no"?>
<!DOCTYPE svg PUBLIC "-//W3C//DTD SVG 20010904//EN"
 "http://www.w3.org/TR/2001/REC-SVG-20010904/DTD/svg10.dtd">
<svg version="1.0" xmlns="http://www.w3.org/2000/svg"
 width="500.000000pt" height="500.000000pt" viewBox="0 0 500.000000 500.000000"
 preserveAspectRatio="xMidYMid meet">
<metadata>
Created by potrace 1.11, written by Peter Selinger 2001-2013
</metadata>
<g transform="translate(0.000000,500.000000) scale(0.100000,-0.100000)"
fill="#000000" stroke="none">
<path d="M0 2500 l0 -2500 2500 0 2500 0 0 2500 0 2500 -2500 0 -2500 0 0
-2500z m2732 979 c94 -20 177 -67 259 -149 113 -112 159 -221 159 -375 0 -151
-52 -277 -156 -380 -107 -106 -228 -155 -384 -155 -147 0 -271 51 -375 155
-164 164 -202 406 -98 623 36 74 149 188 229 230 109 57 246 76 366 51z
m-1344 -1446 c-3 -26 -7 -28 -50 -31 l-48 -3 0 -104 c0 -123 -3 -135 -40 -135
-37 0 -40 12 -40 135 l0 104 -47 3 c-44 3 -48 5 -51 31 l-3 27 141 0 141 0 -3
-27z m120 -35 l3 -58 54 0 54 0 3 58 c3 56 3 57 33 57 l30 0 0 -145 0 -145
-30 0 c-30 0 -30 1 -33 58 l-3 57 -54 0 -54 0 -3 -57 c-3 -57 -3 -58 -33 -58
l-30 0 -3 134 c-1 74 0 141 3 149 3 8 16 12 32 10 27 -3 28 -6 31 -60z m470
25 l3 -33 -80 0 c-74 0 -81 -2 -81 -20 0 -16 8 -19 58 -22 56 -3 57 -3 57 -33
0 -30 -1 -30 -57 -33 -54 -3 -58 -5 -58 -27 0 -24 2 -25 81 -25 l80 0 -3 -32
-3 -33 -110 0 -110 0 -3 134 c-1 74 0 141 3 148 3 11 30 13 112 11 l108 -3 3
-32z m383 -1 c40 -44 40 -99 1 -143 -23 -26 -38 -33 -80 -37 -50 -4 -51 -5
-54 -41 -3 -33 -6 -36 -33 -36 l-30 0 -3 134 c-1 74 0 141 3 149 4 11 23 13
86 10 77 -3 82 -5 110 -36z m307 -98 c65 -131 66 -136 48 -150 -30 -22 -45
-17 -63 21 -16 34 -19 35 -73 35 -54 0 -57 -1 -73 -35 -18 -38 -33 -43 -62
-21 -18 13 -17 18 34 127 97 208 97 208 189 23z m188 81 c20 -30 40 -55 43
-55 3 0 22 25 41 55 37 59 41 61 71 45 28 -16 24 -32 -28 -107 -39 -56 -49
-78 -53 -123 -5 -53 -6 -55 -35 -55 -29 0 -30 1 -35 60 -4 51 -12 70 -53 129
-45 65 -47 70 -31 87 27 30 41 23 80 -36z m560 39 c37 -17 44 -43 19 -64 -13
-11 -23 -11 -54 0 -97 32 -152 -79 -67 -136 32 -21 76 -12 76 16 0 13 -8 20
-27 22 -22 2 -28 8 -28 28 0 24 3 25 60 25 l60 0 3 -67 c3 -62 1 -68 -23 -84
-64 -42 -163 -23 -207 39 -33 46 -36 123 -6 166 45 65 125 88 194 55z m332
-120 c65 -131 66 -136 48 -150 -30 -22 -45 -17 -63 21 -16 34 -19 35 -73 35
-54 0 -57 -1 -73 -35 -18 -38 -33 -43 -62 -21 -18 13 -17 18 34 127 97 208 97
208 189 23z m288 117 c95 -58 46 -201 -68 -201 -33 0 -38 -3 -38 -24 0 -13 -3
-31 -6 -40 -7 -19 -45 -21 -62 -4 -17 17 -17 259 0 276 20 20 138 15 174 -7z
m-294 -593 c26 6 38 -13 36 -58 l-1 -35 -6 40 c-5 31 -10 40 -26 40 -16 0 -21
-9 -26 -40 -5 -31 -6 -24 -6 30 0 39 2 58 4 44 3 -21 8 -26 25 -21z m-2389
-81 c31 -4 31 -4 -5 -5 l-38 -2 2 63 2 62 3 -57 c4 -56 5 -57 36 -61z m1907
59 c0 -57 -15 -75 -54 -60 -24 9 -22 71 4 79 11 3 24 3 30 0 5 -3 10 3 10 14
0 12 2 21 5 21 3 0 5 -24 5 -54z m-1731 16 c-12 -5 -11 -69 1 -75 6 -3 5 -4
-2 -3 -7 1 -15 21 -18 43 -8 51 -3 66 15 50 7 -7 9 -13 4 -15z m239 -3 c-6 -4
-9 -23 -6 -43 2 -20 0 -36 -4 -36 -4 0 -8 18 -8 40 0 22 -5 40 -10 40 -7 0 -6
5 2 13 9 10 15 11 24 3 8 -7 8 -13 2 -17z m2064 3 c-16 -5 -16 -54 0 -70 9 -9
9 -12 0 -12 -11 0 -20 24 -23 65 -2 32 0 35 18 28 11 -4 12 -8 5 -11z m-2378
2 c22 -8 22 -70 0 -78 -32 -12 -54 3 -54 39 0 39 19 52 54 39z m174 -6 c20
-20 14 -28 -23 -28 -19 0 -35 -4 -35 -9 0 -16 29 -33 45 -27 9 3 13 2 10 -4
-8 -14 -38 -13 -53 2 -26 26 -7 78 28 78 9 0 21 -5 28 -12z m82 3 c0 -5 -9 -7
-20 -4 -29 8 -25 -15 5 -29 15 -7 24 -18 23 -27 -4 -19 -36 -27 -51 -12 -7 7
-4 8 10 5 31 -8 38 14 9 26 -25 9 -34 29 -19 43 10 10 43 8 43 -2z m206 -41
l2 -45 -7 40 c-5 31 -10 40 -26 40 -16 0 -21 -9 -26 -40 l-6 -40 -2 46 c-1 46
-1 46 32 45 31 -1 32 -2 33 -46z m88 44 c28 -11 18 -34 -15 -34 -24 0 -30 -4
-27 -17 3 -13 12 -17 31 -16 15 1 25 -2 22 -8 -9 -13 -39 -11 -53 3 -16 16
-15 65 1 71 18 8 23 8 41 1z m56 -36 c0 -10 5 -18 10 -18 6 0 10 6 10 14 0 24
21 30 27 7 8 -31 20 -26 29 12 4 17 9 27 11 21 2 -5 -3 -28 -11 -50 l-14 -39
-13 29 -13 29 -12 -29 -12 -29 -16 37 c-18 42 -22 72 -6 48 5 -8 10 -23 10
-32z m164 33 c4 -5 -2 -7 -13 -4 -30 8 -35 -16 -6 -27 17 -7 25 -16 23 -27 -4
-21 -36 -29 -52 -13 -8 9 -4 10 17 5 21 -6 27 -4 27 9 0 9 -6 16 -13 16 -19 0
-36 20 -30 36 6 16 39 19 47 5z m149 -6 c-12 -9 -23 -29 -26 -48 -3 -26 -4
-23 -5 13 -2 43 0 46 25 48 28 2 28 2 6 -13z m95 3 c20 -20 14 -28 -23 -28
-19 0 -35 -4 -35 -9 0 -16 30 -33 47 -27 14 6 15 4 7 -4 -16 -16 -52 -4 -59
20 -13 43 33 78 63 48z m81 -25 c7 21 15 36 18 34 2 -3 -4 -25 -15 -49 l-19
-43 -16 39 c-23 52 -21 71 2 21 l18 -40 12 38z m149 15 c3 -14 -3 -18 -28 -18
-25 0 -31 -4 -28 -17 2 -12 13 -18 30 -18 15 1 24 -3 22 -7 -8 -12 -38 -10
-52 4 -16 16 -15 51 0 66 17 17 52 11 56 -10z m46 -10 c14 -31 15 -32 21 -10
4 12 11 22 15 22 4 0 11 -10 15 -22 6 -22 7 -21 21 10 21 48 25 39 7 -15 -15
-43 -17 -45 -26 -25 -6 12 -13 22 -17 22 -4 0 -11 -10 -17 -22 -9 -20 -11 -18
-26 25 -18 54 -14 63 7 15z m160 23 c4 -5 -3 -7 -14 -4 -14 4 -20 0 -20 -11 0
-9 6 -16 14 -16 7 0 19 -6 25 -14 18 -21 -13 -42 -42 -28 -21 11 -21 11 4 6
36 -7 47 13 15 26 -25 9 -34 29 -19 43 9 10 31 9 37 -2z m156 -36 c0 -38 -2
-41 -30 -43 -23 -2 -33 3 -41 22 -17 36 4 67 41 64 28 -2 30 -5 30 -43z m96
-5 l1 -45 -4 43 c-6 62 -46 54 -56 -13 -3 -23 -4 -19 -6 15 -1 45 -1 46 32 45
31 0 32 -1 33 -45z m191 -17 c-2 -16 -4 -5 -4 22 0 28 2 40 4 28 2 -13 2 -35
0 -50z m99 17 l1 -45 -4 43 c-6 62 -46 54 -56 -13 -3 -23 -4 -19 -6 15 -1 45
-1 46 32 45 31 0 32 -1 33 -45z m88 41 c3 -4 -6 -6 -19 -3 -33 6 -32 -16 1
-28 16 -7 24 -16 22 -27 -4 -20 -35 -30 -50 -15 -6 6 0 8 16 5 34 -7 34 14 1
29 -24 11 -32 28 -18 41 9 10 41 9 47 -2z m33 -58 c-2 -16 -4 -5 -4 22 0 28 2
40 4 28 2 -13 2 -35 0 -50z m113 17 c0 -25 -5 -51 -12 -58 -14 -14 -44 -16
-52 -4 -2 4 7 8 21 7 14 0 28 5 30 12 3 7 -3 9 -16 6 -27 -7 -51 13 -51 41 0
30 19 46 52 44 26 -2 28 -5 28 -48z m234 41 c4 -5 -3 -7 -14 -4 -14 4 -20 0
-20 -11 0 -9 6 -16 14 -16 7 0 19 -6 25 -14 18 -21 -13 -42 -42 -28 -21 11
-21 11 4 6 36 -7 47 13 15 26 -25 9 -34 29 -19 43 9 10 31 9 37 -2z m-1307
-53 c-2 -13 -4 -5 -4 17 -1 22 1 32 4 23 2 -10 2 -28 0 -40z m-337 -27 c0 -6
-4 -12 -8 -15 -5 -3 -9 1 -9 9 0 8 4 15 9 15 4 0 8 -4 8 -9z"/>
<path d="M2489 3432 c-256 -67 -420 -343 -354 -597 47 -178 194 -325 365 -364
66 -15 177 -13 245 4 174 46 317 197 354 373 46 222 -65 452 -264 547 -121 57
-225 68 -346 37z m246 -27 c111 -29 213 -104 277 -204 78 -124 91 -305 30
-435 -77 -163 -200 -254 -376 -276 -196 -25 -385 81 -473 265 -31 66 -37 89
-41 169 -8 154 36 264 144 365 123 116 280 157 439 116z"/>
<path d="M2190 3040 l0 -40 220 0 220 0 0 40 0 40 -220 0 -220 0 0 -40z"/>
<path d="M2190 2880 l0 -40 410 0 410 0 0 40 0 40 -410 0 -410 0 0 -40z"/>
<path d="M2230 1950 c0 -36 2 -40 26 -40 36 0 64 17 64 40 0 23 -28 40 -64 40
-24 0 -26 -4 -26 -40z"/>
<path d="M2562 1916 c-11 -24 -10 -26 13 -26 28 0 31 8 12 34 -12 17 -14 16
-25 -8z"/>
<path d="M3642 1916 c-11 -24 -10 -26 13 -26 28 0 31 8 12 34 -12 17 -14 16
-25 -8z"/>
<path d="M3930 1950 c0 -36 3 -40 24 -40 41 0 56 11 56 40 0 29 -15 40 -56 40
-21 0 -24 -4 -24 -40z"/>
<path d="M3204 1426 c-10 -26 0 -51 21 -51 16 0 20 7 20 30 0 33 -30 49 -41
21z"/>
<path d="M1414 1426 c-10 -26 0 -51 21 -51 16 0 20 7 20 30 0 33 -30 49 -41
21z"/>
<path d="M1575 1430 c-4 -6 7 -10 25 -10 18 0 29 4 25 10 -3 6 -15 10 -25 10
-10 0 -22 -4 -25 -10z"/>
<path d="M1965 1430 c-4 -6 5 -10 20 -10 15 0 24 4 20 10 -3 6 -12 10 -20 10
-8 0 -17 -4 -20 -10z"/>
<path d="M2420 1430 c0 -5 12 -10 26 -10 14 0 23 4 19 10 -3 6 -15 10 -26 10
-10 0 -19 -4 -19 -10z"/>
<path d="M2645 1430 c-4 -6 5 -10 20 -10 15 0 24 4 20 10 -3 6 -12 10 -20 10
-8 0 -17 -4 -20 -10z"/>
<path d="M3001 1426 c-19 -23 -4 -58 22 -54 17 2 22 10 22 33 0 34 -24 45 -44
21z"/>
<path d="M3614 1426 c-11 -29 0 -51 26 -51 21 0 25 5 25 30 0 24 -5 31 -23 33
-13 2 -24 -3 -28 -12z"/>
</g>
</svg>
